<svg width="454" height="279" viewBox="0 0 454 279" fill="none" xmlns="http://www.w3.org/2000/svg">
<g clip-path="url(#clip0_25427_1966)">
<rect width="454" height="279" fill="url(#paint0_linear_25427_1966)"/>
<path d="M115.016 -7.604L120.224 -11.3071C120.224 -11.3071 121.901 -6.34359 123.583 -2.89046C125.26 0.557455 127.443 3.50537 127.443 3.50537L122.323 7.96371C122.323 7.96371 120.052 4.84912 118.036 0.307455C115.937 -4.07275 115.016 -7.604 115.016 -7.604Z" fill="#F20064"/>
<path d="M69.2246 95.5988C69.2246 95.5988 72.334 93.6613 73.8444 93.1561C75.3548 92.6509 76.11 93.1561 76.11 93.1561C76.11 93.1561 75.61 88.6978 72.6673 84.2394C69.7298 79.8592 67.3757 77.3384 67.3757 77.3384L62.2559 80.4478C62.2559 80.4478 64.7715 83.3957 66.959 87.7707C69.1413 92.0623 69.2246 95.5988 69.2246 95.5988Z" fill="#179BD7"/>
<path d="M78.8809 131.364C78.8809 131.364 82.3288 129.094 84.0892 125.729C85.8548 122.359 86.2715 118.995 86.2715 118.995L91.4798 122.026C91.4798 122.026 91.5632 125.729 88.5423 129.849C85.5163 133.974 83.1673 134.734 83.1673 134.734L78.8809 131.364Z" fill="#F20064"/>
<path d="M91.1406 37.4373L94.25 42.8228C94.25 42.8228 99.1198 40.9738 102.057 38.7863C105 36.5988 106.76 33.4009 106.76 33.4009L102.229 28.1821C102.229 28.1821 100.464 31.0415 97.776 33.5675C94.9219 36.0936 91.1406 37.4373 91.1406 37.4373Z" fill="#3DCD51"/>
<path d="M233.406 66.1564L237.776 61.8647L250.203 70.7814L245.417 75.8335L233.406 66.1564Z" fill="#179BD7"/>
<path d="M158.068 4.46354L163.193 1.51562C163.193 1.51562 165.042 4.88542 166.469 6.65104C167.896 8.41667 171.339 11.1927 171.339 11.1927L167.475 16.2448C167.475 16.2448 163.699 13.974 161.094 10.6875C158.49 7.40625 158.068 4.46354 158.068 4.46354Z" fill="#3DCD51"/>
<path d="M275.916 4.92204L280.286 8.96371C280.286 8.96371 283.562 6.521 285.156 2.98975C286.671 -0.546711 287.088 -2.81755 287.088 -2.81755L282.723 -5.93213C282.723 -5.93213 282.551 -3.6613 280.369 -0.124837C278.187 3.57829 275.916 4.92204 275.916 4.92204Z" fill="#179BD7"/>
<path d="M368.058 50.5988L372.761 45.7186C372.761 45.7186 367.891 40.8384 365.287 38.3957C362.683 35.953 360.839 35.1978 360.839 35.1978L356.053 39.2394C356.053 39.2394 358.907 41.005 361.173 43.4478C363.443 45.8853 368.058 50.5988 368.058 50.5988Z" fill="#3DCD51"/>
<path d="M349.203 106.375L354.745 103.177L362.724 115.886L357.682 119.505L349.203 106.375Z" fill="#F20064"/>
<path d="M394.162 104.016L395.589 109.906C395.589 109.906 400.714 107.464 403.402 105.443C406.173 103.344 408.021 100.229 408.021 100.229L404.829 96.6929C404.829 96.6929 402.896 99.4689 399.959 101.49C397.016 103.511 394.162 104.016 394.162 104.016Z" fill="#179BD7"/>
<path d="M208.881 47.9894L213.751 50.5988C213.751 50.5988 215.6 46.6457 216.355 43.3592C217.027 40.078 216.605 38.3957 216.605 38.3957L211.396 35.1978C211.396 35.1978 212.24 38.229 211.396 41.4269C210.558 44.6248 208.881 47.9894 208.881 47.9894Z" fill="#3DCD51"/>
<path d="M210.281 145.271L214.729 149.984C214.729 149.984 217.922 145.865 219.854 141.99C221.786 138.12 222.208 135.932 222.208 135.932L218.344 132.734C218.344 132.734 218.26 134.583 215.49 138.875C212.797 143.255 210.281 145.271 210.281 145.271Z" fill="#F20064"/>
<path d="M380.844 143.609L378.828 149.333C378.828 149.333 382.099 151.521 386.385 152.026C390.75 152.531 394.109 151.521 394.109 151.521V145.63C394.109 145.63 389.24 145.464 386.047 145.208C382.859 144.958 380.844 143.609 380.844 143.609Z" fill="#F20064"/>
<path d="M105.859 84.9168L109.302 80.4585L121.146 86.1825L119.464 92.0731C119.464 92.0731 115.432 91.5679 111.651 89.547C107.792 87.5262 105.859 84.9168 105.859 84.9168Z" fill="#3DCD51"/>
<mask id="mask0_25427_1966" style="mask-type:luminance" maskUnits="userSpaceOnUse" x="37" y="134" width="18" height="17">
<path d="M37 134.646H54.7031V150.646H37V134.646Z" fill="white"/>
</mask>
<g mask="url(#mask0_25427_1966)">
<path d="M37.0059 142.256L38.1829 149.828C38.1829 149.828 43.3027 147.808 46.9173 145.703C50.5267 143.599 53.3809 140.823 53.3809 140.823L49.8548 135.354L37.0059 142.256Z" fill="#3DCD51"/>
</g>
<path d="M339.027 144.724L344.568 142.198C344.568 142.198 341.459 137.823 340.115 133.11C338.771 128.396 339.027 125.365 339.027 125.365L332.225 127.469C332.225 127.469 332.308 130.75 334.49 135.969C336.756 141.271 339.027 144.724 339.027 144.724Z" fill="#179BD7"/>
<path d="M272.303 157.078L274.402 162.63C274.402 162.63 279.527 161.115 282.886 157.917C286.245 154.719 287.167 152.365 287.167 152.365L284.063 147.818C284.063 147.818 282.803 151.104 279.527 153.625C276.167 156.235 272.303 157.078 272.303 157.078Z" fill="#3DCD51"/>
<path d="M152.172 110.51L154.943 117.833C154.943 117.833 159.312 115.307 163.594 112.443C167.964 109.583 169.391 107.562 169.391 107.562L165.859 101.167C165.859 101.167 163.76 103.437 160.068 106.302C156.203 109.161 152.172 110.51 152.172 110.51Z" fill="#3DCD51"/>
</g>
<defs>
<linearGradient id="paint0_linear_25427_1966" x1="227" y1="0" x2="227" y2="279" gradientUnits="userSpaceOnUse">
<stop stop-color="#F3B64C"/>
<stop offset="1" stop-color="#ED6B00"/>
</linearGradient>
<clipPath id="clip0_25427_1966">
<rect width="454" height="279" fill="white"/>
</clipPath>
</defs>
</svg>
