<svg width="1440" height="1089" viewBox="0 0 1440 1089" fill="none" xmlns="http://www.w3.org/2000/svg">
<g filter="url(#filter0_f_29425_1875)">
<ellipse cx="1312.5" cy="1189.04" rx="683" ry="623" transform="rotate(5.93416 1312.5 1189.04)" fill="#4D3589"/>
</g>
<g filter="url(#filter1_f_29425_1875)">
<ellipse cx="297.717" cy="759.021" rx="651.829" ry="421.901" transform="rotate(16.4751 297.717 759.021)" fill="#0025CE"/>
</g>
<g filter="url(#filter2_f_29425_1875)">
<path d="M762.177 873.449C208.967 786.276 92.131 244.305 -102.878 239.116C-348.017 232.593 -353.809 728.959 -175.403 936.857C34.8892 1181.91 1137.08 932.525 762.177 873.449Z" fill="#00EAFF"/>
</g>
<g filter="url(#filter3_f_29425_1875)">
<path d="M161.411 849.712C-9.42786 831.954 -99.1784 914.453 -111.912 1036.96C-138.482 1292.58 1360.11 1540.22 1610.64 1350.78C1794.75 1211.56 1796.16 988.721 1627.4 892C1436.67 782.696 1448.19 764.44 1244.5 814C1074.54 855.351 879.639 928.887 694.427 959.406C521.07 987.971 313.16 865.485 161.411 849.712Z" fill="#BADAFF"/>
</g>
<defs>
<filter id="filter0_f_29425_1875" x="330.064" y="265.307" width="1964.87" height="1847.46" filterUnits="userSpaceOnUse" color-interpolation-filters="sRGB">
<feFlood flood-opacity="0" result="BackgroundImageFix"/>
<feBlend mode="normal" in="SourceGraphic" in2="BackgroundImageFix" result="shape"/>
<feGaussianBlur stdDeviation="150" result="effect1_foregroundBlur_29425_1875"/>
</filter>
<filter id="filter1_f_29425_1875" x="-758.814" y="-105.897" width="2113.06" height="1729.84" filterUnits="userSpaceOnUse" color-interpolation-filters="sRGB">
<feFlood flood-opacity="0" result="BackgroundImageFix"/>
<feBlend mode="normal" in="SourceGraphic" in2="BackgroundImageFix" result="shape"/>
<feGaussianBlur stdDeviation="210" result="effect1_foregroundBlur_29425_1875"/>
</filter>
<filter id="filter2_f_29425_1875" x="-619.332" y="-80.9478" width="1778.65" height="1443.61" filterUnits="userSpaceOnUse" color-interpolation-filters="sRGB">
<feFlood flood-opacity="0" result="BackgroundImageFix"/>
<feBlend mode="normal" in="SourceGraphic" in2="BackgroundImageFix" result="shape"/>
<feGaussianBlur stdDeviation="160" result="effect1_foregroundBlur_29425_1875"/>
</filter>
<filter id="filter3_f_29425_1875" x="-432.262" y="467.875" width="2503.7" height="1269.75" filterUnits="userSpaceOnUse" color-interpolation-filters="sRGB">
<feFlood flood-opacity="0" result="BackgroundImageFix"/>
<feBlend mode="normal" in="SourceGraphic" in2="BackgroundImageFix" result="shape"/>
<feGaussianBlur stdDeviation="160" result="effect1_foregroundBlur_29425_1875"/>
</filter>
</defs>
</svg>
