<svg width="48" height="48" viewBox="0 0 48 48" fill="none" xmlns="http://www.w3.org/2000/svg">
<path d="M24 4C18.76 4 14.5 8.26 14.5 13.5C14.5 18.64 18.52 22.8 23.76 22.98C23.92 22.96 24.08 22.96 24.2 22.98C24.24 22.98 24.26 22.98 24.3 22.98C24.32 22.98 24.32 22.98 24.34 22.98C29.46 22.8 33.48 18.64 33.5 13.5C33.5 8.26 29.24 4 24 4Z" fill="#717680"/>
<path d="M34.1599 28.2998C28.5799 24.5798 19.4799 24.5798 13.8599 28.2998C11.3199 29.9998 9.91992 32.2998 9.91992 34.7598C9.91992 37.2198 11.3199 39.4998 13.8399 41.1798C16.6399 43.0598 20.3199 43.9998 23.9999 43.9998C27.6799 43.9998 31.3599 43.0598 34.1599 41.1798C36.6799 39.4798 38.0799 37.1998 38.0799 34.7198C38.0599 32.2598 36.6799 29.9798 34.1599 28.2998Z" fill="#717680"/>
</svg>
